<svg width="65" height="76" viewBox="0 0 65 76" fill="none" xmlns="http://www.w3.org/2000/svg">
<path d="M64.2904 67.0038C63.8332 66.3906 63.0363 66.3259 62.5104 66.859C61.165 68.223 59.92 69.6371 58.1547 70.206C56.1924 70.8383 54.3274 70.3393 52.5514 69.3039L59.1223 43.5251C59.2858 42.8838 59.0575 42.1945 58.5668 41.8477L52.4875 37.5526V25.0103C52.4875 24.1979 51.9226 23.5391 51.2257 23.5391H48.7023V19.1255C48.7023 18.3131 48.1374 17.6543 47.4406 17.6543H43.4662V13.2407C43.4662 12.4283 42.9013 11.7695 42.2045 11.7695H36.0852V1.47119C36.0852 0.6588 35.5203 0 34.8234 0H29.7766C29.0797 0 28.5149 0.6588 28.5149 1.47119V11.7695H22.3955C21.6987 11.7695 21.1338 12.4283 21.1338 13.2407V17.6543H17.1594C16.4626 17.6543 15.8977 18.3131 15.8977 19.1255V23.5391H13.3743C12.6774 23.5391 12.1125 24.1979 12.1125 25.0103V37.5526L6.03334 41.8476C5.54253 42.1944 5.31429 42.8836 5.47781 43.5249C5.47781 43.5249 12.0325 69.2399 12.0353 69.251C11.9234 68.812 9.90441 68.523 9.54747 68.4691C5.87373 67.9148 3.08017 70.0606 0.433845 72.7437C-0.0920387 73.2768 -0.147554 74.2059 0.309566 74.8191C0.745993 75.4043 1.55816 75.5026 2.08947 74.964C4.81578 72.2005 7.88945 70.0939 11.4967 72.1973C14.76 74.0997 18.1379 74.9154 21.5368 72.8299C24.2775 71.1477 26.9223 69.6952 29.9815 71.3935L33.1266 73.1398C35.8173 74.634 38.8893 74.5996 41.5547 73.0454C43.1972 72.0878 44.8666 70.8135 46.7427 70.6631C48.5818 70.5158 50.3588 71.3142 51.9747 72.2571C54.1094 73.5018 56.6085 73.7504 58.9008 72.9885C61.0122 72.2866 62.5489 70.7186 64.166 69.0791C64.692 68.5461 64.7476 67.617 64.2904 67.0038ZM49.964 26.4814V35.7698L36.8172 26.4814H49.964ZM31.0383 2.94238H33.5617V11.7695H31.0383V2.94238ZM23.6572 14.7119H40.9428V17.6543H23.6572V14.7119ZM14.636 26.4814H27.7828L14.636 35.7698V26.4814ZM31.0383 68.7216C31.0385 68.4601 29.2397 67.9779 29.0044 67.9184C26.8085 67.3642 24.4511 67.7161 22.4604 68.938C21.016 69.8244 19.6224 70.8585 17.9704 71.1065C17.9674 71.107 17.9644 71.1074 17.9614 71.1078C16.9961 71.2447 16.0082 71.1618 15.074 70.8442L8.1741 43.7756L31.0383 27.6219C31.0383 27.6219 31.0383 68.7199 31.0383 68.7216ZM18.4211 23.5391V20.5967H46.1789V23.5391H18.4211ZM50.2192 68.1248C50.2332 67.6697 46.6814 67.6738 46.4435 67.7031C44.2534 67.9732 42.3588 69.2871 40.4261 70.4139C38.1429 71.745 35.7936 71.3624 33.5617 70.1226V27.6219L56.4259 43.7756L50.2192 68.1248Z" fill="#164467"/>
</svg>
