<svg width="76" height="67" viewBox="0 0 76 67" fill="none" xmlns="http://www.w3.org/2000/svg">
<path d="M69.6402 0C68.3262 0 67.0123 0.330034 66.0268 0.990133L59.7855 5.94087L48.9452 14.5222L11.8257 5.28078L6.24132 9.57143L32.1921 27.064L18.3955 37.6256L2.9564 34.6552L0 36.9655L0.985434 37.9557L0.328511 38.2857L12.8111 47.197L14.7821 48.8473L15.7675 51.1576L21.3519 65.3498L22.009 65.0197L22.6659 66.3399L25.6223 64.0296L26.6078 48.1872L40.4044 37.2956L51.2447 67L56.829 62.3793V24.0936L67.6692 15.5123L73.9106 10.5616C74.896 9.57142 75.553 8.58127 75.8815 7.26108C76.21 5.61083 75.8815 3.63053 74.5676 2.31034C72.9251 0.990138 71.2827 0.330049 69.6402 0Z" fill="#164467"/>
</svg>
