<svg width="28" height="28" viewBox="0 0 28 28" fill="none" xmlns="http://www.w3.org/2000/svg">
<path fill-rule="evenodd" clip-rule="evenodd" d="M20.4141 16.7792C20.0658 16.6057 18.3531 15.7669 18.0338 15.6513C17.7145 15.5356 17.4823 15.4777 17.2501 15.8248C17.0178 16.1719 16.3502 16.9527 16.147 17.1841C15.9438 17.4155 15.7407 17.4445 15.3923 17.2709C15.0439 17.0974 13.9215 16.7313 12.591 15.5501C11.5554 14.6309 10.8563 13.4955 10.6531 13.1485C10.4499 12.8014 10.6314 12.6138 10.8059 12.4409C10.9625 12.2857 11.1542 12.0361 11.3284 11.8336C11.5025 11.6311 11.5606 11.4865 11.6767 11.2552C11.7928 11.0238 11.7348 10.8214 11.6477 10.6478C11.5606 10.4743 10.864 8.76789 10.5737 8.07375C10.2909 7.39775 10.0037 7.48922 9.78989 7.47862C9.58692 7.46855 9.35448 7.46642 9.12224 7.46642C8.89001 7.46642 8.51266 7.55322 8.1933 7.90022C7.874 8.24729 6.97412 9.08609 6.97412 10.7924C6.97412 12.4988 8.22236 14.1473 8.39654 14.3787C8.57071 14.6101 10.8529 18.1119 14.3473 19.6135C15.1784 19.9707 15.8273 20.184 16.3332 20.3439C17.1677 20.6077 17.9271 20.5705 18.5273 20.4812C19.1965 20.3817 20.5883 19.6425 20.8786 18.8327C21.1688 18.0229 21.1688 17.3287 21.0818 17.1841C20.9947 17.0395 20.7625 16.9527 20.4141 16.7792ZM14.058 25.4159H14.0533C11.974 25.4151 9.93467 24.8593 8.1556 23.8085L7.73244 23.5585L3.3468 24.7035L4.51742 20.448L4.24186 20.0118C3.08195 18.1757 2.46935 16.0535 2.47022 13.8745C2.47276 7.5162 7.67097 2.34326 14.0626 2.34326C17.1576 2.34446 20.067 3.54558 22.2548 5.72529C24.4426 7.90506 25.6467 10.8025 25.6455 13.8839C25.6429 20.2426 20.4448 25.4159 14.058 25.4159ZM23.9209 4.06899C21.2888 1.44639 17.7884 0.00139809 14.0589 -6.86646e-05C6.37461 -6.86646e-05 0.120491 6.22372 0.11741 13.8738C0.116406 16.3192 0.758338 18.7062 1.97832 20.8102L0.000488281 28.0001L7.39108 26.0707C9.42737 27.1761 11.72 27.7585 14.0534 27.7595H14.059H14.0591C21.7427 27.7595 27.9973 21.5349 28.0005 13.8848C28.0019 10.1775 26.5532 6.69151 23.9209 4.06899Z" fill="white"/>
</svg>
