<svg width="77" height="80" viewBox="0 0 77 80" fill="none" xmlns="http://www.w3.org/2000/svg">
	<path
		d="M52.0474 18.6553C52.0955 11.1736 46.1762 5.08557 38.8371 5.03667C31.474 4.98777 25.4825 11.0024 25.4344 18.4597C25.3862 25.9413 31.3056 32.0293 38.6446 32.0782C46.0077 32.1271 51.9993 26.1125 52.0474 18.6553Z"
		fill="#F3F3F4" />
	<path
		d="M40.8823 36.9438C40.5454 36.9927 40.1845 37.0171 39.8235 37.0416C39.7514 37.0416 39.6792 36.9927 39.6792 36.8949C39.6792 36.8215 39.7273 36.7482 39.8235 36.7482C40.1604 36.7237 40.5214 36.6993 40.8582 36.6504C40.9304 36.6504 41.0026 36.6993 41.0267 36.7726C41.0267 36.846 40.9786 36.9193 40.8823 36.9438Z"
		fill="#F3F3F4" />
	<path
		d="M43.0718 36.3814C43.0959 36.4548 43.0478 36.5281 42.9756 36.5526C42.6387 36.6259 42.2778 36.6993 41.9409 36.7726C41.8687 36.7971 41.7965 36.7237 41.7724 36.6504V36.6259C41.7724 36.5526 41.8206 36.5037 41.8928 36.4792C42.2296 36.4059 42.5665 36.3325 42.9034 36.2592C42.9756 36.2592 43.0718 36.3081 43.0718 36.3814Z"
		fill="#F3F3F4" />
	<path
		d="M50.483 32.4939C50.5312 32.5673 50.5312 32.6406 50.459 32.6895C50.1943 32.9096 49.9055 33.1541 49.6409 33.3497C49.5687 33.3986 49.4965 33.3741 49.4484 33.3252C49.4243 33.3008 49.4243 33.2763 49.4243 33.2274C49.4243 33.1785 49.4483 33.1296 49.4724 33.1052C49.7612 32.8851 50.0259 32.6651 50.2905 32.445C50.3387 32.445 50.4349 32.445 50.483 32.4939Z"
		fill="#F3F3F4" />
	<path
		d="M53.3467 29.3643C53.4189 29.4132 53.4189 29.511 53.3708 29.5599C53.1542 29.8533 52.9376 30.1222 52.7211 30.4156C52.6729 30.489 52.5767 30.489 52.5286 30.4401C52.5045 30.4156 52.4804 30.3667 52.4804 30.3178C52.4804 30.2934 52.4805 30.2445 52.5045 30.22C52.7211 29.9511 52.9376 29.6577 53.1542 29.3887C53.1783 29.3398 53.2745 29.3154 53.3467 29.3643Z"
		fill="#F3F3F4" />
	<path
		d="M54.4775 27.5794C54.5497 27.6283 54.5737 27.7017 54.5256 27.775C54.3572 28.0929 54.1647 28.3863 53.9722 28.7041C53.9241 28.7775 53.8519 28.8019 53.7797 28.753C53.7316 28.7286 53.7075 28.6797 53.7075 28.6308C53.7075 28.6063 53.7075 28.5819 53.7316 28.5574C53.9241 28.264 54.1166 27.9462 54.285 27.6528C54.3331 27.555 54.4053 27.5305 54.4775 27.5794Z"
		fill="#F3F3F4" />
	<path
		d="M55.4163 25.6479C55.4885 25.6724 55.5125 25.7702 55.4885 25.8435C55.3441 26.1614 55.1997 26.5037 55.0313 26.8215C55.0072 26.8949 54.911 26.9193 54.8388 26.8949C54.7907 26.8704 54.7666 26.8215 54.7666 26.7726C54.7666 26.7482 54.7666 26.7237 54.7907 26.6993C54.935 26.3814 55.1035 26.0636 55.2238 25.7457C55.2478 25.6479 55.3441 25.6235 55.4163 25.6479Z"
		fill="#F3F3F4" />
	<path
		d="M56.1138 23.643C56.186 23.6675 56.2341 23.7408 56.2101 23.8142C56.1138 24.1565 55.9935 24.4988 55.8732 24.8411C55.8491 24.9144 55.7529 24.9633 55.6807 24.9389C55.6326 24.9144 55.5845 24.8655 55.5845 24.7922C55.5845 24.7677 55.5845 24.7677 55.5845 24.7433C55.7048 24.401 55.801 24.0831 55.9213 23.7408C55.9454 23.6675 56.0416 23.6186 56.1138 23.643Z"
		fill="#F3F3F4" />
	<path
		d="M56.571 21.5403C56.6432 21.5648 56.6913 21.6381 56.6913 21.7115C56.6432 22.0538 56.571 22.4205 56.4748 22.7628C56.4507 22.8362 56.3785 22.8851 56.3063 22.8606C56.2341 22.8362 56.186 22.7873 56.186 22.7139V22.6895C56.2582 22.3472 56.3304 22.0049 56.4026 21.6381C56.4266 21.5892 56.4988 21.5403 56.571 21.5403Z"
		fill="#F3F3F4" />
	<path
		d="M56.9318 19.5844C56.9078 19.9511 56.8837 20.2934 56.8356 20.6602C56.8356 20.7335 56.7634 20.8069 56.6672 20.7824C56.595 20.7824 56.5469 20.7091 56.5469 20.6357C56.5469 20.6357 56.5469 20.6357 56.5469 20.6113C56.595 20.269 56.619 19.9022 56.6431 19.5599C56.6431 19.4866 56.7153 19.4132 56.7875 19.4132C56.8837 19.4377 56.9318 19.4866 56.9318 19.5844Z"
		fill="#F3F3F4" />
	<path
		d="M56.9323 17.4327C56.9563 17.7995 56.9563 18.1418 56.9563 18.5085C56.9563 18.5819 56.8841 18.6552 56.812 18.6552C56.7398 18.6552 56.6676 18.5819 56.6676 18.5085C56.6676 18.1662 56.6676 17.7995 56.6435 17.4572C56.6435 17.3838 56.6917 17.3105 56.7879 17.3105C56.8601 17.286 56.9323 17.3349 56.9323 17.4327Z"
		fill="#F3F3F4" />
	<path
		d="M56.6672 15.2812C56.7393 15.6235 56.7875 15.9902 56.8115 16.357C56.8115 16.4303 56.7634 16.5037 56.6912 16.5281C56.619 16.5281 56.5468 16.4792 56.5228 16.4059C56.4747 16.0636 56.4265 15.6968 56.3784 15.3545V15.3301C56.3784 15.2567 56.4265 15.2078 56.4987 15.1834C56.595 15.1589 56.6672 15.2078 56.6672 15.2812Z"
		fill="#F3F3F4" />
	<path
		d="M56.186 13.2029C56.2823 13.5452 56.3785 13.8875 56.4507 14.2543C56.4748 14.3276 56.4267 14.401 56.3545 14.4254C56.2823 14.4499 56.2101 14.401 56.186 14.3276C56.1139 13.9853 56.0176 13.643 55.9214 13.3007C55.9214 13.2763 55.9214 13.2763 55.9214 13.2518C55.9214 13.1785 55.9695 13.1296 56.0176 13.1051C56.0898 13.0807 56.162 13.1051 56.186 13.2029Z"
		fill="#F3F3F4" />
	<path
		d="M55.464 11.1736C55.6084 11.4914 55.7287 11.8337 55.849 12.176C55.8731 12.2494 55.849 12.3227 55.7528 12.3716C55.6806 12.3961 55.6084 12.3716 55.5603 12.2738C55.44 11.956 55.3196 11.6137 55.1753 11.2958C55.1753 11.2714 55.1753 11.2469 55.1753 11.2469C55.1753 11.198 55.1993 11.1491 55.2715 11.1247C55.3437 11.0513 55.4159 11.1002 55.464 11.1736Z"
		fill="#F3F3F4" />
	<path
		d="M54.5016 9.24205C54.6701 9.5599 54.8385 9.87775 55.0069 10.1956C55.031 10.2689 55.0069 10.3423 54.9347 10.3912C54.8626 10.4156 54.7904 10.3912 54.7422 10.3178C54.5979 10 54.4294 9.68215 54.2369 9.38875C54.2129 9.3643 54.2129 9.33985 54.2129 9.3154C54.2129 9.2665 54.2369 9.2176 54.2851 9.19315C54.3813 9.1687 54.4535 9.1687 54.5016 9.24205Z"
		fill="#F3F3F4" />
	<path
		d="M53.3467 7.4572C53.5633 7.7506 53.7558 8.044 53.9483 8.33739C53.9964 8.41074 53.9723 8.48409 53.9001 8.53299C53.828 8.58189 53.7558 8.55744 53.7076 8.48409C53.5151 8.19069 53.3226 7.8973 53.1061 7.62835C53.082 7.6039 53.082 7.57945 53.082 7.53055C53.082 7.48165 53.1061 7.43275 53.1301 7.4083C53.2023 7.38385 53.2986 7.38385 53.3467 7.4572Z"
		fill="#F3F3F4" />
	<path
		d="M51.9751 5.81905C52.2157 6.088 52.4564 6.35695 52.6729 6.6259C52.7211 6.69924 52.721 6.7726 52.6489 6.82149C52.5767 6.87039 52.5045 6.8704 52.4564 6.79705C52.2398 6.5281 51.9992 6.25915 51.7585 6.01465C51.7345 5.9902 51.7104 5.9413 51.7104 5.91685C51.7104 5.86795 51.7345 5.8435 51.7585 5.81905C51.8307 5.7457 51.927 5.7457 51.9751 5.81905Z"
		fill="#F3F3F4" />
	<path
		d="M50.4353 4.32762C50.7 4.54767 50.9647 4.79217 51.2294 5.03667C51.2775 5.08557 51.2775 5.18337 51.2294 5.23227C51.1812 5.28117 51.085 5.28117 51.0368 5.23227C50.7962 4.98777 50.5315 4.74327 50.2669 4.52322C50.2428 4.49877 50.2187 4.44987 50.2187 4.40097C50.2187 4.37652 50.2187 4.32762 50.2428 4.30317C50.2668 4.27872 50.3631 4.27872 50.4353 4.32762Z"
		fill="#F3F3F4" />
	<path
		d="M48.7264 3.05626C49.0152 3.25186 49.3039 3.4719 49.5927 3.6675C49.6649 3.7164 49.6649 3.8142 49.6168 3.8631C49.5686 3.93645 49.4724 3.93645 49.4243 3.88755C49.1355 3.6675 48.8468 3.4719 48.558 3.27631C48.5099 3.25186 48.4858 3.20296 48.4858 3.15406C48.4858 3.12961 48.4858 3.10516 48.5099 3.08071C48.5821 3.03181 48.6543 3.00736 48.7264 3.05626Z"
		fill="#F3F3F4" />
	<path
		d="M46.8981 1.956C47.2109 2.12715 47.5237 2.2983 47.8365 2.46945C47.9087 2.51835 47.9327 2.5917 47.8846 2.66505C47.8365 2.7384 47.7643 2.76285 47.6921 2.71395C47.4034 2.5428 47.0906 2.37165 46.7777 2.2005C46.7296 2.17605 46.7055 2.12715 46.7055 2.07825C46.7055 2.0538 46.7056 2.02935 46.7296 2.0049C46.7296 1.956 46.8259 1.93155 46.8981 1.956Z"
		fill="#F3F3F4" />
	<path
		d="M44.9488 1.12471C45.2857 1.24696 45.6226 1.36921 45.9354 1.51591C46.0076 1.54036 46.0316 1.63816 46.0076 1.71151C45.9835 1.78486 45.8873 1.80931 45.8151 1.78486C45.5023 1.63816 45.1654 1.51591 44.8526 1.39366C44.8045 1.36921 44.7563 1.32031 44.7563 1.24696C44.7563 1.22251 44.7563 1.22251 44.7563 1.19806C44.7804 1.12471 44.8526 1.10026 44.9488 1.12471Z"
		fill="#F3F3F4" />
	<path
		d="M42.9038 0.51344C43.2406 0.58679 43.6016 0.684589 43.9385 0.782388C44.0106 0.806838 44.0588 0.880189 44.0347 0.953539C44.0106 1.02689 43.9385 1.07579 43.8663 1.05134C43.5294 0.953539 43.1925 0.855738 42.8556 0.782388C42.7835 0.757939 42.7353 0.709039 42.7353 0.63569V0.61124C42.7594 0.53789 42.8316 0.48899 42.9038 0.51344Z"
		fill="#F3F3F4" />
	<path
		d="M40.8099 0.122253C41.1708 0.171153 41.5077 0.220053 41.8686 0.268952C41.9408 0.293402 41.9889 0.366753 41.9889 0.440103C41.9649 0.513452 41.8927 0.562352 41.8205 0.562352C41.4836 0.513452 41.1227 0.440101 40.7858 0.415651C40.7136 0.415651 40.6655 0.342302 40.6655 0.268952C40.6655 0.268952 40.6655 0.268953 40.6655 0.244503C40.6655 0.171153 40.7377 0.122253 40.8099 0.122253Z"
		fill="#F3F3F4" />
	<path
		d="M38.7167 0C39.0536 0 39.4145 -3.7344e-07 39.7514 0.0244495C39.8236 0.0244495 39.8958 0.0977988 39.8958 0.171148C39.8958 0.244498 39.8236 0.317849 39.7514 0.317849C39.4145 0.293399 39.0776 0.293398 38.7408 0.293398H38.7167C38.6445 0.293398 38.5723 0.220049 38.5723 0.146699C38.5483 0.0733493 38.6205 0 38.7167 0Z"
		fill="#F3F3F4" />
	<path
		d="M36.5754 0.145896C36.9364 0.0969958 37.2732 0.0725456 37.6342 0.0480957C37.7064 0.0480957 37.7785 0.096997 37.7785 0.194796C37.7785 0.268146 37.7304 0.341495 37.6342 0.341495C37.2973 0.365945 36.9363 0.390395 36.5995 0.439295C36.5273 0.439295 36.4551 0.390395 36.431 0.317046C36.431 0.317046 36.431 0.317044 36.431 0.292594C36.4551 0.219245 36.5032 0.145896 36.5754 0.145896Z"
		fill="#F3F3F4" />
	<path
		d="M34.3852 0.68457V0.660118C34.3852 0.586769 34.4334 0.537869 34.5055 0.513419C34.8424 0.44007 35.2034 0.36672 35.5402 0.29337C35.6124 0.26892 35.6846 0.34227 35.7087 0.41562C35.7327 0.488969 35.6605 0.56232 35.5884 0.58677C35.2515 0.660119 34.9146 0.70902 34.5777 0.806819C34.4815 0.806819 34.4093 0.757919 34.3852 0.68457Z"
		fill="#F3F3F4" />
	<path
		d="M32.3882 1.32026C32.3882 1.29581 32.3882 1.29581 32.3882 1.27136C32.3882 1.22246 32.4122 1.14911 32.4844 1.12466C32.8213 1.00241 33.1582 0.880161 33.495 0.782361C33.5672 0.757911 33.6394 0.806811 33.6635 0.880161C33.6875 0.953511 33.6394 1.02686 33.5672 1.05131C33.2304 1.14911 32.8935 1.27136 32.5807 1.39361C32.4844 1.44251 32.4122 1.39361 32.3882 1.32026Z"
		fill="#F3F3F4" />
	<path
		d="M30.4635 2.17603C30.4635 2.15158 30.4394 2.12713 30.4394 2.10268C30.4394 2.05378 30.4635 2.00488 30.5116 1.98043C30.8244 1.80928 31.1372 1.66258 31.4741 1.51588C31.5463 1.49143 31.6426 1.51588 31.6666 1.58923C31.6907 1.66258 31.6666 1.76038 31.5944 1.78483C31.2816 1.93153 30.9688 2.07823 30.656 2.22493C30.5838 2.27383 30.4876 2.24938 30.4635 2.17603Z"
		fill="#F3F3F4" />
	<path
		d="M24.135 7.67723C24.0869 7.65278 24.0869 7.60388 24.0869 7.55498C24.0869 7.53053 24.0869 7.50608 24.111 7.45718C24.3275 7.16378 24.5441 6.89484 24.7606 6.60144C24.8088 6.52809 24.905 6.52809 24.9531 6.57699C25.0253 6.62589 25.0253 6.72369 24.9772 6.77259C24.7606 7.04153 24.5441 7.33493 24.3275 7.60388C24.2794 7.72613 24.1831 7.72613 24.135 7.67723Z"
		fill="#F3F3F4" />
	<path
		d="M22.9799 9.48656C22.9318 9.46211 22.9077 9.41321 22.9077 9.36431C22.9077 9.33986 22.9077 9.31541 22.9318 9.29096C23.1002 8.97311 23.2927 8.67971 23.4852 8.36186C23.5333 8.28851 23.6055 8.28851 23.6777 8.31296C23.7499 8.36186 23.7499 8.43521 23.7258 8.50856C23.5333 8.80196 23.3408 9.09536 23.1724 9.41321C23.1243 9.48656 23.0521 9.51101 22.9799 9.48656Z"
		fill="#F3F3F4" />
	<path
		d="M22.0415 11.3936C21.9934 11.3692 21.9453 11.3203 21.9453 11.2714C21.9453 11.247 21.9453 11.2225 21.9453 11.2225C22.0897 10.9047 22.234 10.5624 22.4025 10.2445C22.4265 10.1712 22.5228 10.1467 22.595 10.1712C22.6672 10.1956 22.6912 10.2934 22.6672 10.3668C22.5228 10.6846 22.3544 11.0025 22.234 11.3203C22.21 11.3937 22.1137 11.4425 22.0415 11.3936Z"
		fill="#F3F3F4" />
	<path
		d="M21.3433 12.8362C21.2711 12.8118 21.2471 12.7873 21.2471 12.7384V12.714C21.3433 12.4695 21.4636 12.225 21.5839 11.9805C21.608 11.9316 21.7042 11.9071 21.7764 11.9071C21.8486 11.9316 21.8967 11.9805 21.8727 12.0294C21.7524 12.2739 21.6561 12.4939 21.5358 12.7384C21.5117 12.8118 21.4155 12.8607 21.3433 12.8362Z"
		fill="#F3F3F4" />
	<path
		d="M20.8864 15.5012C20.8142 15.4768 20.7661 15.4279 20.7661 15.3545V15.3301C20.8383 14.9878 20.8864 14.621 20.9827 14.2787C21.0067 14.2054 21.0789 14.1565 21.1511 14.1809C21.2233 14.2054 21.2714 14.2787 21.2473 14.3521C21.1752 14.6944 21.103 15.0367 21.0308 15.379C21.0308 15.4523 20.9586 15.5257 20.8864 15.5012Z"
		fill="#F3F3F4" />
	<path
		d="M20.5259 17.4816C20.5499 17.1149 20.574 16.7482 20.6221 16.4059C20.6221 16.3325 20.6943 16.2592 20.7905 16.2836C20.8627 16.2836 20.9349 16.357 20.9109 16.4548C20.8627 16.7971 20.8387 17.1638 20.8146 17.5061C20.8146 17.5794 20.7424 17.6528 20.6702 17.6528C20.574 17.6283 20.5259 17.555 20.5259 17.4816Z"
		fill="#F3F3F4" />
	<path
		d="M20.5255 19.6333C20.5014 19.2665 20.5014 18.9242 20.5014 18.5575C20.5014 18.4841 20.5736 18.4108 20.6458 18.4108C20.718 18.4108 20.7902 18.4841 20.7902 18.5575C20.7902 18.8998 20.7902 19.2665 20.8143 19.6088C20.8143 19.6822 20.7661 19.7555 20.6699 19.7555C20.5977 19.78 20.5255 19.7066 20.5255 19.6333Z"
		fill="#F3F3F4" />
	<path
		d="M20.7659 21.7604C20.6937 21.4181 20.6456 21.0513 20.6216 20.6846C20.6216 20.6846 20.6216 20.6846 20.6216 20.6601C20.6216 20.5868 20.6697 20.5134 20.7419 20.5134C20.8141 20.5134 20.8862 20.5623 20.9103 20.6357C20.9584 20.978 21.0066 21.3447 21.0547 21.687C21.0787 21.7604 21.0066 21.8337 20.9344 21.8582C20.8622 21.9071 20.79 21.8337 20.7659 21.7604Z"
		fill="#F3F3F4" />
	<path
		d="M21.2476 23.8631C21.1513 23.5208 21.0551 23.1785 20.9829 22.8117V22.7873C20.9829 22.7139 21.031 22.665 21.1032 22.6406C21.1754 22.6161 21.2476 22.665 21.2716 22.7384C21.3438 23.0807 21.4401 23.423 21.5363 23.7653C21.5604 23.8386 21.5123 23.912 21.4401 23.9364C21.3679 23.9853 21.2716 23.9364 21.2476 23.8631Z"
		fill="#F3F3F4" />
	<path
		d="M21.9934 25.8924C21.849 25.5746 21.7287 25.2323 21.6084 24.89C21.6084 24.8655 21.6084 24.8655 21.6084 24.8411C21.6084 24.7922 21.6324 24.7188 21.7046 24.6944C21.7768 24.6699 21.849 24.6944 21.8971 24.7922C22.0174 25.1345 22.1378 25.4523 22.2821 25.7702C22.3062 25.8435 22.2821 25.9169 22.2099 25.9658C22.0896 25.9902 22.0174 25.9658 21.9934 25.8924Z"
		fill="#F3F3F4" />
	<path
		d="M22.9317 27.7995C22.7633 27.4816 22.5948 27.1638 22.4264 26.8459C22.4264 26.8215 22.4023 26.797 22.4023 26.7726C22.4023 26.7237 22.4264 26.6748 22.4745 26.6503C22.5467 26.6259 22.6189 26.6503 22.667 26.7237C22.8114 27.0415 22.9798 27.3594 23.1723 27.6528C23.2204 27.7261 23.1964 27.7995 23.1242 27.8484C23.052 27.8973 22.9798 27.8728 22.9317 27.7995Z"
		fill="#F3F3F4" />
	<path
		d="M24.111 29.6088C23.8944 29.3154 23.7019 29.022 23.5094 28.7286C23.4853 28.7042 23.4853 28.6797 23.4853 28.6553C23.4853 28.6064 23.5094 28.5575 23.5575 28.533C23.6297 28.4841 23.7019 28.5086 23.75 28.5819C23.9425 28.8753 24.135 29.1687 24.3516 29.4377C24.3997 29.511 24.3756 29.5844 24.3275 29.6333C24.2313 29.6822 24.1591 29.6577 24.111 29.6088Z"
		fill="#F3F3F4" />
	<path
		d="M25.4587 31.2469C25.218 30.978 24.9774 30.7091 24.7609 30.4401C24.7368 30.4157 24.7368 30.3912 24.7368 30.3423C24.7368 30.2934 24.7609 30.269 24.7849 30.2201C24.8571 30.1712 24.9293 30.1712 24.9774 30.2445C25.194 30.5135 25.4346 30.7824 25.6752 31.0269C25.7234 31.0758 25.7234 31.1736 25.6752 31.2225C25.6031 31.3203 25.5068 31.3203 25.4587 31.2469Z"
		fill="#F3F3F4" />
	<path
		d="M51.8067 31.0269C51.8549 30.978 51.9511 30.9535 51.9992 31.0269C52.0474 31.0758 52.0714 31.1736 51.9992 31.2225C51.7586 31.4914 51.518 31.7359 51.2533 31.9804C51.2052 32.0293 51.1089 32.0293 51.0608 31.9804C51.0367 31.956 51.0127 31.9071 51.0127 31.8826C51.0127 31.8337 51.0367 31.8093 51.0608 31.7848C51.3255 31.5403 51.5661 31.2714 51.8067 31.0269Z"
		fill="#F3F3F4" />
	<path
		d="M26.9984 32.7384C26.7337 32.5183 26.469 32.2738 26.2044 32.0293C26.1803 32.0049 26.1562 31.956 26.1562 31.9315C26.1562 31.9071 26.1803 31.8582 26.2044 31.8337C26.2525 31.7848 26.3487 31.7848 26.3969 31.8337C26.6375 32.0782 26.9022 32.3227 27.1668 32.5428C27.239 32.5917 27.239 32.6895 27.1909 32.7384C27.1668 32.7628 27.0706 32.7873 26.9984 32.7384Z"
		fill="#F3F3F4" />
	<path
		d="M28.7063 34.0098C28.4176 33.8142 28.1288 33.5941 27.8401 33.3985C27.792 33.3741 27.792 33.3252 27.792 33.2763C27.792 33.2518 27.792 33.2274 27.816 33.1785C27.8642 33.1051 27.9604 33.1051 28.0085 33.154C28.2973 33.3741 28.586 33.5697 28.8748 33.7653C28.947 33.8142 28.947 33.8875 28.9229 33.9609C28.8507 34.0342 28.7785 34.0587 28.7063 34.0098Z"
		fill="#F3F3F4" />
	<path
		d="M48.6304 33.7653C48.7026 33.7164 48.7748 33.7409 48.823 33.8142C48.8711 33.8876 48.847 33.9609 48.7748 34.0098C48.4861 34.2054 48.1733 34.401 47.8845 34.5722C47.8123 34.6211 47.7401 34.5966 47.692 34.5233C47.668 34.4988 47.6679 34.4744 47.6679 34.4499C47.6679 34.401 47.692 34.3521 47.7401 34.3277C48.0289 34.1321 48.3417 33.9609 48.6304 33.7653Z"
		fill="#F3F3F4" />
	<path
		d="M30.5355 35.0856C30.2227 34.9144 29.9099 34.7433 29.5971 34.5721C29.5489 34.5477 29.5249 34.4988 29.5249 34.4499C29.5249 34.4254 29.5249 34.401 29.5489 34.3765C29.5971 34.3032 29.6693 34.2787 29.7414 34.3276C30.0302 34.4988 30.343 34.6699 30.6558 34.8411C30.728 34.8655 30.7521 34.9633 30.728 35.0367C30.7039 35.11 30.6077 35.1345 30.5355 35.0856Z"
		fill="#F3F3F4" />
	<path
		d="M46.8257 34.8166C46.8979 34.7922 46.9701 34.8166 47.0182 34.89C47.0423 34.9633 47.0182 35.0367 46.946 35.0856C46.6332 35.2567 46.3204 35.4034 45.9835 35.5501C45.9113 35.5745 45.8151 35.5501 45.791 35.4768C45.791 35.4523 45.791 35.4278 45.791 35.4278C45.791 35.3789 45.8151 35.3301 45.8873 35.3056C46.2001 35.1345 46.5129 34.9878 46.8257 34.8166Z"
		fill="#F3F3F4" />
	<path
		d="M32.4842 35.9413C32.1473 35.8191 31.8104 35.6968 31.4976 35.5501C31.4495 35.5257 31.4013 35.4768 31.4013 35.4279C31.4013 35.4034 31.4013 35.379 31.4013 35.379C31.4254 35.3056 31.5217 35.2812 31.5938 35.3056C31.9067 35.4523 32.2435 35.5746 32.5563 35.6968C32.6285 35.7213 32.6767 35.8191 32.6526 35.8924C32.6526 35.9413 32.5563 35.9902 32.4842 35.9413Z"
		fill="#F3F3F4" />
	<path
		d="M44.9007 35.6724C44.9728 35.6479 45.045 35.6724 45.0932 35.7702C45.1172 35.8435 45.0932 35.9169 44.9969 35.9658C44.66 36.088 44.3232 36.2103 43.9863 36.3081C43.9141 36.3325 43.8419 36.2836 43.8179 36.2103C43.8179 36.1858 43.8179 36.1858 43.8179 36.1614C43.8179 36.088 43.866 36.0391 43.9141 36.0147C44.251 35.8924 44.5878 35.7946 44.9007 35.6724Z"
		fill="#F3F3F4" />
	<path
		d="M34.5298 36.577C34.193 36.5037 33.832 36.4059 33.4952 36.3081C33.423 36.2836 33.3989 36.2347 33.3989 36.1614C33.3989 36.1369 33.3989 36.1369 33.3989 36.1125C33.423 36.0391 33.4952 35.9902 33.5673 36.0147C33.9042 36.1125 34.2411 36.2103 34.578 36.2836C34.6502 36.3081 34.6983 36.3814 34.6742 36.4548C34.6742 36.5281 34.602 36.577 34.5298 36.577Z"
		fill="#F3F3F4" />
	<path
		d="M36.5994 36.9438C36.2385 36.8949 35.9016 36.846 35.5407 36.7971C35.4685 36.7726 35.4204 36.7237 35.4204 36.6504V36.6259C35.4445 36.5526 35.5166 36.5037 35.5888 36.5037C35.9257 36.5526 36.2866 36.6259 36.6235 36.6504C36.6957 36.6504 36.7679 36.7237 36.7438 36.8215C36.7679 36.8949 36.6957 36.9438 36.5994 36.9438Z"
		fill="#F3F3F4" />
	<path
		d="M37.5376 36.8949C37.5376 36.8949 37.5376 36.8704 37.5376 36.8949C37.5376 36.7971 37.6098 36.7482 37.6819 36.7482C38.0188 36.7726 38.3798 36.7726 38.7166 36.7726H38.7648C38.8369 36.7726 38.9091 36.846 38.9091 36.9193C38.9091 36.9927 38.8369 37.066 38.7648 37.066H38.7166C38.3557 37.066 38.0188 37.066 37.6579 37.0416C37.5857 37.0171 37.5376 36.9682 37.5376 36.8949Z"
		fill="#F3F3F4" />
	<path
		d="M29.525 2.29828C29.4288 2.29828 29.3325 2.32273 29.2604 2.37163L28.8032 2.73838L28.0091 3.37407L25.2901 2.68948L24.881 3.00733L26.7819 4.30317L25.7713 5.08557L24.6404 4.86552L24.4238 5.03666L24.496 5.11001L24.4479 5.13446L25.3622 5.79461L25.5066 5.91686L25.5788 6.08801L25.9879 7.13935L26.036 7.1149L26.0841 7.2127L26.3007 7.04155L26.3729 5.86796L27.3835 5.06111L28.1775 7.2616L28.5866 6.91931V4.08312L29.3807 3.44742L29.8379 3.08067C29.91 3.00732 29.9582 2.93397 29.9822 2.83618C30.0063 2.71393 29.9822 2.56723 29.886 2.46943C29.7657 2.37163 29.6454 2.32273 29.525 2.29828Z"
		fill="#F3F3F4" />
	<path
		d="M46.9221 15.6479C45.8152 13.9364 43.3849 13.2763 41.5081 14.1809C40.9306 14.4499 40.3771 14.7677 39.7034 15.11C39.2703 14.3765 38.9574 13.7897 38.5965 13.2029C37.5859 11.5892 35.4203 10.8313 33.6396 11.4181C31.3778 12.176 30.1506 14.7433 30.9447 17.0905C31.5462 18.9242 33.4471 20.0978 35.324 19.9511L37.249 19.0954L35.0353 17.9218L35.6849 17.6528L38.3799 18.313L38.8371 18.4108L39.944 17.8973L40.6418 17.5795C40.7621 17.5306 40.9065 17.5306 41.0268 17.5795C41.1952 17.6284 41.3396 17.7506 41.4118 17.9218C41.4118 17.9218 41.4118 17.9218 41.4118 17.9462C41.4118 17.9462 41.4118 17.9462 41.4118 17.9707C41.484 18.1418 41.484 18.3374 41.3877 18.4841C41.3396 18.6064 41.2434 18.7042 41.1231 18.7531L40.4252 19.0709L39.3184 19.5844L37.3934 22.9829L36.7678 23.2763L37.4415 20.6112C36.479 20.7579 35.5887 21.2225 35.2518 22.2005C34.6503 23.9609 35.324 25.4768 36.2384 27.1638C39.6312 25.2323 42.9999 23.4719 46.1762 21.3936C47.9568 20.1956 48.1012 17.5061 46.9221 15.6479Z"
		fill="#164467" />
	<path
		d="M2.50249 48.3863H0V47.0172C2.26187 47.0172 4.18686 47.0172 6.47279 47.0172V48.3863H3.9703V55.0123H2.47843V48.3863H2.50249Z"
		fill="#81B8C9" />
	<path
		d="M15.1114 51.0514C15.0874 53.1296 13.8361 55.1834 11.069 55.1834C8.30178 55.1834 7.02647 53.154 7.02647 51.0514C7.02647 48.9487 8.3499 46.8215 11.069 46.8215C13.788 46.846 15.1355 48.9731 15.1114 51.0514ZM8.49427 51.1003C8.51833 52.4206 9.21615 53.8142 11.093 53.8142C12.9699 53.8142 13.6436 52.3961 13.6677 51.0758C13.6918 49.7311 12.9458 48.2152 11.093 48.2152C9.24021 48.2152 8.47021 49.7555 8.49427 51.1003Z"
		fill="#81B8C9" />
	<path
		d="M23.1479 50.9536C23.172 52.9829 21.9689 55.0123 19.2017 55.0123C18.2392 55.0123 17.0842 55.0123 16.0977 55.0123V47.0172C17.0602 47.0172 18.2151 47.0172 19.2017 47.0172C21.8967 47.0172 23.0998 48.9731 23.1479 50.9536ZM17.5895 53.5697H19.2017C20.9823 53.5697 21.7042 52.2494 21.6561 50.9291C21.632 49.6822 20.9101 48.4352 19.2017 48.4352H17.5895V53.5697Z"
		fill="#81B8C9" />
	<path
		d="M31.8585 51.0514C31.8345 53.1296 30.5832 55.1834 27.816 55.1834C25.0489 55.1834 23.7736 53.154 23.7736 51.0514C23.7736 48.9487 25.097 46.8215 27.816 46.8215C30.5351 46.846 31.8826 48.9731 31.8585 51.0514ZM25.2414 51.1003C25.2654 52.4206 25.9632 53.8142 27.8401 53.8142C29.717 53.8142 30.3907 52.3961 30.4148 51.0758C30.4388 49.7311 29.6929 48.2152 27.8401 48.2152C25.9873 48.2152 25.1932 49.7555 25.2414 51.1003Z"
		fill="#81B8C9" />
	<path
		d="M42.0853 49.2176L39.5106 52.6895H39.2219L36.7194 49.1932V55.0123H35.2275V47.0172H36.936L39.3903 50.4646L41.8447 47.0172H43.5531V55.0123H42.0613V49.2176H42.0853Z"
		fill="#81B8C9" />
	<path
		d="M51.8786 47.0172V51.5893C51.8786 53.9609 50.4589 55.159 48.4617 55.159C46.5608 55.159 44.9727 53.9854 44.9727 51.5893V47.0172H46.4405V51.5893C46.4405 53.0318 47.2586 53.7898 48.4858 53.7898C49.7129 53.7898 50.4108 52.9585 50.4108 51.5893V47.0172H51.8786Z"
		fill="#81B8C9" />
	<path
		d="M58.496 46.9927H59.9879V55.0122H59.0735L54.9347 49.6088V55.0122H53.4429V47.0171H54.646L58.496 51.9804V46.9927Z"
		fill="#81B8C9" />
	<path
		d="M68.2891 50.9536C68.3131 52.9829 67.11 55.0123 64.3428 55.0123C63.3803 55.0123 62.2253 55.0123 61.2388 55.0123V47.0172C62.2013 47.0172 63.3563 47.0172 64.3428 47.0172C67.0378 47.0172 68.2409 48.9731 68.2891 50.9536ZM62.7306 53.5697H64.3428C66.1234 53.5697 66.8453 52.2494 66.7972 50.9291C66.7731 49.6822 66.0513 48.4352 64.3428 48.4352H62.7306V53.5697Z"
		fill="#81B8C9" />
	<path
		d="M76.9996 51.0514C76.9756 53.1296 75.7243 55.1834 72.9572 55.1834C70.19 55.1834 68.9147 53.154 68.9147 51.0514C68.9147 48.9487 70.2381 46.8215 72.9572 46.8215C75.6762 46.846 77.0237 48.9731 76.9996 51.0514ZM70.3825 51.1003C70.4065 52.4206 71.1043 53.8142 72.9812 53.8142C74.834 53.8142 75.5318 52.3961 75.5559 51.0758C75.58 49.7311 74.834 48.2152 72.9812 48.2152C71.1043 48.2152 70.3343 49.7555 70.3825 51.1003Z"
		fill="#81B8C9" />
	<path
		d="M60.7818 62.3716H63.1159V76.4547C63.1159 78.0929 61.8165 79.3887 60.2284 79.3887H59.2177L59.0252 76.8948C58.0627 78.8997 55.44 79.8533 53.5871 79.9022C48.6062 79.9266 44.9487 76.8215 44.9487 70.8557C44.9487 64.9877 48.7987 61.9071 53.7075 61.956C55.9453 61.956 58.1109 63.0318 59.0493 64.7188L59.0974 64.0342C59.0974 63.1051 59.8674 62.3716 60.7818 62.3716ZM49.0634 70.8802C49.0634 74.3031 51.5418 76.2836 54.5015 76.0391C60.6374 75.5501 60.6374 66.2102 54.5015 65.7457C51.5178 65.5256 49.0634 67.4572 49.0634 70.8802Z"
		fill="#C8161C" />
	<path
		d="M43.8177 65.7457C43.3124 66.3325 42.4702 66.5281 41.7965 66.1369C40.8581 65.599 39.8234 65.4034 38.6684 65.4034C36.6953 65.4034 35.6124 66.0147 35.6124 67.0905C35.6124 68.1907 36.599 68.8264 38.7406 68.9487C41.9168 69.1443 45.9352 69.8778 45.9352 74.401C45.9352 77.4083 43.529 80 38.7165 80C36.0696 80 33.3987 79.5599 30.9443 76.9682L31.8346 75.6724C32.4121 74.8411 33.519 74.5477 34.3853 75.0611C35.7087 75.8191 37.4653 76.3325 38.7887 76.357C40.3527 76.3814 41.8205 75.5746 41.8205 74.3276C41.8205 73.154 40.8581 72.665 38.4759 72.5428C35.2996 72.2983 31.5218 71.1247 31.5218 67.2616C31.5218 63.3252 35.5403 61.956 38.5962 61.956C41.219 61.956 43.1921 62.4694 45.1412 64.2054L43.8177 65.7457Z"
		fill="#F3F3F4" />
	<path
		d="M15.7367 58.5086C17.2526 58.5086 18.4798 59.7555 18.4798 61.2958V71.2714C18.4798 73.8631 19.8755 75.8191 22.5223 75.8191C25.0729 75.8191 26.8054 73.643 26.8054 71.0513V62.3472H30.9201V79.4132H29.5004C28.2011 79.4132 27.0942 78.4108 26.9257 77.0905C25.1932 78.8264 23.5811 79.6333 21.247 79.6333C17.2286 79.6333 14.293 76.5526 14.293 71.2714V58.4597H15.7367V58.5086Z"
		fill="#81B8C9" />
</svg>
