<?xml version="1.0" standalone="no"?>
<!DOCTYPE svg PUBLIC "-//W3C//DTD SVG 20010904//EN"
 "http://www.w3.org/TR/2001/REC-SVG-20010904/DTD/svg10.dtd">
<svg version="1.0" xmlns="http://www.w3.org/2000/svg"
 width="700.000000pt" height="700.000000pt" viewBox="0 0 700.000000 700.000000"
 preserveAspectRatio="xMidYMid meet">
<metadata>
Created by potrace 1.14, written by Peter Selinger 2001-2017
</metadata>
<g transform="translate(0.000000,700.000000) scale(0.100000,-0.100000)"
fill="#000000" stroke="none">
<path d="M0 3500 l0 -3500 3500 0 3500 0 0 3500 0 3500 -3500 0 -3500 0 0
-3500z m3658 2556 c2 -3 2 -12 -2 -21 -5 -13 -18 -14 -88 -9 -46 4 -85 8 -87
10 -2 2 -1 11 3 20 6 15 17 16 88 11 44 -4 83 -9 86 -11z m-295 -11 c9 -21 -1
-24 -98 -31 -82 -7 -87 -6 -83 12 2 15 15 20 53 25 93 11 123 10 128 -6z m510
-6 c77 -12 98 -22 80 -40 -7 -7 -34 -7 -92 1 -80 12 -98 20 -86 40 8 12 10 12
98 -1z m-805 -37 c-2 -10 -23 -20 -63 -28 -88 -19 -117 -18 -113 3 2 13 23 22
83 34 86 17 98 16 93 -9z m1177 -53 c5 -6 5 -13 -2 -20 -8 -8 -33 -5 -89 11
-95 27 -98 28 -84 45 9 10 25 9 88 -7 42 -11 81 -24 87 -29z m-1460 -8 c0 -8
-33 -25 -80 -42 -96 -34 -95 -34 -95 -10 0 15 16 25 73 44 78 28 102 29 102 8z
m1664 -57 c69 -25 95 -49 66 -60 -21 -8 -159 51 -163 70 -5 22 16 20 97 -10z
m-1944 -44 c0 -16 -130 -83 -153 -78 -31 6 -15 24 53 60 72 39 100 44 100 18z
m2210 -78 c65 -36 96 -72 62 -72 -19 0 -157 79 -157 89 0 9 11 21 19 21 3 0
38 -17 76 -38z m-2471 -33 c47 -37 34 -63 -76 -153 l-98 -79 0 -196 0 -197
-28 -21 -28 -21 -54 147 c-29 80 -54 148 -56 150 -2 2 -35 -20 -73 -50 l-70
-53 -6 -83 c-11 -131 -34 -132 -85 -5 -32 81 -35 85 -107 135 -40 28 -73 57
-73 64 0 21 41 25 115 9 l70 -15 68 52 c37 28 67 54 67 58 0 3 -56 43 -125 89
-69 46 -125 87 -125 91 0 5 11 16 25 25 25 16 34 15 216 -30 l191 -46 95 75
c52 41 103 75 112 75 10 0 30 -10 45 -21z m2751 -147 c38 -27 45 -35 35 -47
-12 -14 -32 -3 -149 81 -2 2 -1 11 3 20 7 18 15 14 111 -54z m208 -163 c53
-47 72 -79 46 -79 -16 0 -129 103 -129 117 0 25 26 13 83 -38z m-1522 -59
c575 -59 1072 -360 1392 -845 333 -505 393 -1181 155 -1745 -276 -654 -893
-1092 -1602 -1139 -455 -30 -892 100 -1254 374 -857 647 -992 1875 -299 2702
389 463 1006 713 1608 653z m1734 -155 c51 -57 64 -92 32 -83 -25 6 -119 117
-113 133 9 25 22 18 81 -50z m-3850 -55 c8 -12 -95 -149 -112 -149 -26 -2 -11
36 38 97 49 62 62 71 74 52z m4037 -178 c30 -44 44 -73 38 -81 -11 -19 -22
-10 -74 63 -50 70 -55 86 -28 86 10 0 36 -28 64 -68z m-4216 -66 c6 -15 -81
-156 -96 -156 -25 0 -17 28 25 95 46 75 61 87 71 61z m4368 -180 c20 -35 36
-71 36 -80 0 -33 -30 -14 -57 37 -16 28 -36 62 -44 75 -12 20 -12 24 1 32 20
12 24 8 64 -64z m-4518 -80 c8 -20 -63 -156 -81 -156 -21 0 -19 19 11 86 36
83 57 104 70 70z m4646 -191 c30 -73 32 -100 9 -100 -18 0 -76 139 -67 161 11
28 29 9 58 -61z m-4759 -41 c10 -11 -52 -124 -68 -124 -20 0 -19 9 6 66 23 56
44 75 62 58z m4848 -225 c25 -81 27 -113 8 -117 -12 -2 -21 16 -38 78 -12 44
-19 85 -16 91 13 20 30 1 46 -52z m-4937 -98 c7 -11 -23 -152 -35 -165 -6 -6
-13 -6 -20 1 -15 15 19 173 37 173 7 0 15 -4 18 -9z m4991 -143 c8 -21 21
-144 17 -156 -5 -17 -29 -15 -35 3 -4 8 -9 48 -13 90 -6 66 -5 75 10 75 9 0
19 -6 21 -12z m-5041 -225 c-7 -90 -14 -111 -33 -99 -12 8 -14 69 -5 140 5 36
11 46 26 46 18 0 19 -6 12 -87z m5080 -99 c10 -76 7 -121 -9 -134 -12 -10 -16
-10 -19 1 -9 27 -17 159 -11 169 15 24 33 8 39 -36z m-5089 -202 c5 -70 4 -83
-10 -88 -9 -4 -18 -4 -20 -2 -3 3 -8 39 -11 81 -5 56 -3 81 6 92 20 24 27 7
35 -83z m5084 -67 c1 -10 0 -51 -4 -92 -6 -64 -9 -73 -27 -73 -19 0 -19 4 -13
88 4 48 10 91 12 95 8 13 28 2 32 -18z m-5063 -182 c13 -82 11 -128 -5 -128
-17 0 -26 30 -36 114 -7 57 -6 61 13 61 17 0 22 -9 28 -47z m5026 -141 c-5
-58 -25 -125 -40 -130 -22 -7 -24 25 -7 103 14 60 21 75 34 73 12 -3 15 -13
13 -46z m-4964 -183 c12 -44 20 -85 16 -90 -13 -21 -34 -6 -44 31 -5 22 -15
58 -20 80 -11 43 -7 60 14 60 8 0 22 -33 34 -81z m4902 -72 c0 -24 -42 -142
-57 -157 -12 -13 -15 -13 -22 -1 -8 12 24 129 44 161 9 15 35 12 35 -3z
m-4808 -202 c33 -79 36 -108 11 -103 -20 4 -78 140 -69 164 11 28 29 9 58 -61z
m4684 -139 c-37 -86 -51 -105 -67 -89 -10 10 -6 27 22 85 36 78 48 93 63 78 6
-6 -1 -34 -18 -74z m-4567 -131 c45 -82 49 -98 24 -93 -20 4 -97 143 -88 158
12 20 24 9 64 -65z m4456 -65 c8 -12 -82 -160 -96 -160 -25 0 -16 34 26 99 45
70 58 81 70 61z m-4297 -186 c50 -70 56 -87 32 -92 -18 -3 -109 127 -103 146
9 23 23 12 71 -54z m4136 -62 c7 -12 -94 -142 -110 -142 -26 0 -14 31 32 91
44 56 66 70 78 51z m-3946 -174 c44 -49 51 -62 41 -74 -10 -13 -16 -11 -41 13
-52 49 -90 103 -84 118 8 21 25 10 84 -57z m3752 -61 c0 -7 -27 -39 -60 -72
-47 -47 -62 -57 -72 -47 -10 10 1 26 52 77 59 60 80 71 80 42z m-3547 -152
c57 -54 69 -75 43 -75 -19 0 -136 101 -136 118 0 26 37 9 93 -43z m3335 -49
c-4 -19 -128 -117 -139 -110 -20 12 -6 35 49 78 57 45 97 59 90 32z m-3108
-122 c67 -45 82 -65 60 -79 -8 -5 -90 46 -149 91 -5 4 7 34 14 34 3 0 37 -21
75 -46z m2870 -59 c0 -18 -116 -95 -142 -95 -37 0 -16 29 50 69 72 44 92 50
92 26z m-2552 -150 c7 -30 -37 -15 -146 52 -19 11 -21 17 -12 28 10 12 23 8
84 -25 39 -22 72 -46 74 -55z m2299 1 c-5 -17 -146 -88 -162 -82 -27 10 -5 32
68 68 69 34 102 39 94 14z m-2107 -75 c43 -17 76 -36 78 -45 5 -22 -15 -20
-89 10 -72 29 -84 38 -75 53 9 14 -2 16 86 -18z m1828 -56 c-14 -13 -133 -55
-155 -55 -7 0 -13 8 -13 18 0 23 147 75 168 59 11 -8 11 -12 0 -22z m-1546
-35 c79 -22 98 -34 81 -51 -8 -8 -34 -4 -92 11 -74 20 -93 34 -74 53 8 9 3 10
85 -13z m1266 -37 c-2 -12 -25 -21 -83 -34 -44 -9 -83 -15 -87 -12 -20 11 -4
33 30 42 65 17 76 19 110 20 26 1 33 -3 30 -16z m-965 -25 c65 -10 77 -14 77
-31 0 -17 -5 -19 -45 -13 -25 3 -65 9 -90 12 -35 5 -45 10 -45 25 0 22 2 23
103 7z m675 -25 c-4 -20 -52 -31 -130 -32 -84 -1 -69 35 17 42 114 8 117 8
113 -10z m-299 -9 c2 -2 1 -11 -3 -20 -6 -15 -18 -16 -87 -11 -81 5 -107 15
-94 37 5 7 33 9 93 4 48 -4 89 -8 91 -10z"/>
<path d="M2810 4492 c-433 -114 -587 -690 -267 -1006 110 -109 236 -168 391
-182 71 -6 75 -5 182 41 60 26 124 54 143 62 l34 15 -144 75 c-79 41 -148 78
-152 82 -4 4 10 16 32 25 l39 18 214 -51 c118 -28 220 -51 226 -51 6 0 73 27
147 61 143 64 159 66 203 26 27 -25 30 -86 5 -115 -10 -11 -76 -46 -146 -77
-85 -39 -134 -67 -146 -84 -9 -14 -71 -120 -137 -234 -105 -184 -124 -211
-157 -229 -22 -10 -41 -17 -44 -14 -3 3 15 84 40 181 l46 177 -37 -6 c-20 -4
-69 -22 -109 -42 -85 -41 -133 -93 -165 -180 -29 -79 -31 -269 -4 -359 21 -70
136 -315 147 -315 16 0 825 449 1079 598 402 236 464 295 511 483 51 198 -8
429 -145 576 -70 75 -144 122 -251 159 -68 24 -97 28 -190 28 -137 1 -201 -17
-379 -109 -69 -36 -130 -65 -134 -65 -4 0 -48 68 -97 151 -72 121 -104 164
-157 214 -152 141 -380 199 -578 147z"/>
</g>
</svg>
